#N canvas 1087 200 740 497 10;
#X obj 257 360 textfile;
#X msg 202 317 bang;
#X msg 423 260 rewind, f 8;
#X obj 80 220 metro 100;
#X obj 167 433 unpack i i i;
#X floatatom 167 457 5 0 0 0 - - -, f 5;
#X msg 510 305 print;
#X msg 359 282 clear;
#X floatatom 207 512 5 0 0 0 - - -, f 5;
#X obj 348 247 bng 15 250 50 0 empty empty empty 17 7 0 10 -262144
-1 -1;
#X obj 116 538 tabread R;
#X obj 28 541 tabread L;
#X obj 281 424 print angle - distance:;
#X obj 405 484 tabread reverb;
#X obj 257 491 tabread distancia;
#X obj 196 617 phasor~ 440;
#X obj 113 801 *~;
#X obj 221 811 *~;
#X obj 169 867 dac~;
#X floatatom 294 618 5 0 0 0 - - -, f 5;
#X obj 160 661 lop~ 8000;
#X obj 161 729 *~;
#X obj 29 584 line~;
#X obj 115 579 line~;
#X obj 281 400 spigot;
#X obj 352 361 tgl 15 0 empty empty empty 17 7 0 10 -262144 -1 -1 0
1;
#X obj 221 843 pvu~;
#X obj 221 884 s vu_r;
#X obj 121 895 s vu_l;
#X obj 120 844 pvu~;
#X floatatom 216 583 5 0 0 0 - - -, f 5;
#X obj 289 591 expr 1 - $f1;
#X obj 385 574 expr 10000 - ((1+$f1) * 3000);
#X obj 385 616 line, f 6;
#X msg 263 155 clear \, read traj/\$1 cr \, rewind;
#X obj 115 559 pack 0 100;
#X obj 28 564 pack 0 100;
#X obj 385 595 pack 0 250;
#X obj 306 184 print;
#X floatatom 359 522 5 0 0 0 - - -, f 5;
#X obj 165 780 rev~;
#X obj 132 193 expr 1000/ ($f1/60);
#X obj 368 732 readsf~ 2;
#X obj 349 754 *~;
#X obj 411 774 *~;
#X obj 455 744 hsl 128 15 0 1 0 0 empty empty empty -2 -8 0 10 -204800
-1 -1 0 1;
#X obj 161 693 *~ 0.6;
#X obj 453 704 bng 15 250 50 0 empty empty empty 17 7 0 10 -262144
-1 -1;
#X obj 711 640 print;
#X obj 446 839 visual;
#X obj 51 369 s dist;
#X obj 50 399 s ang;
#X msg 858 692 open sound/piano.wav \, 1;
#X obj 730 861 *~;
#X obj 820 831 hsl 128 15 0 1 0 0 empty empty empty -2 -8 0 10 -204800
-1 -1 5800 1;
#X obj 896 746 bng 15 250 50 0 empty empty empty 17 7 0 10 -262144
-1 -1;
#X msg 386 677 open sound/backtrack.wav \, 1;
#X obj 733 818 readsf~;
#X obj 263 127 r traj;
#X obj 131 168 r tempo;
#X obj 56 168 r tempo_on;
#X connect 0 0 4 0;
#X connect 0 0 24 0;
#X connect 0 1 9 0;
#X connect 1 0 0 0;
#X connect 2 0 0 0;
#X connect 3 0 1 0;
#X connect 4 0 5 0;
#X connect 4 0 51 0;
#X connect 4 1 8 0;
#X connect 4 1 13 0;
#X connect 4 1 50 0;
#X connect 5 0 11 0;
#X connect 5 0 10 0;
#X connect 6 0 0 0;
#X connect 7 0 0 0;
#X connect 8 0 14 0;
#X connect 9 0 2 0;
#X connect 10 0 35 0;
#X connect 11 0 36 0;
#X connect 13 0 40 1;
#X connect 14 0 31 0;
#X connect 14 0 32 0;
#X connect 16 0 18 0;
#X connect 16 0 29 0;
#X connect 17 0 18 1;
#X connect 17 0 26 0;
#X connect 19 0 21 1;
#X connect 20 0 46 0;
#X connect 21 0 16 0;
#X connect 21 0 17 0;
#X connect 21 0 40 0;
#X connect 22 0 16 1;
#X connect 23 0 17 1;
#X connect 24 0 12 0;
#X connect 25 0 24 1;
#X connect 26 0 27 0;
#X connect 29 0 28 0;
#X connect 30 0 15 0;
#X connect 31 0 19 0;
#X connect 32 0 37 0;
#X connect 33 0 20 1;
#X connect 34 0 0 0;
#X connect 34 0 38 0;
#X connect 35 0 23 0;
#X connect 36 0 22 0;
#X connect 37 0 33 0;
#X connect 40 0 16 0;
#X connect 40 1 17 0;
#X connect 41 0 3 1;
#X connect 42 0 43 0;
#X connect 42 1 44 0;
#X connect 42 2 47 0;
#X connect 43 0 18 0;
#X connect 44 0 18 1;
#X connect 45 0 43 1;
#X connect 45 0 44 1;
#X connect 46 0 21 0;
#X connect 47 0 56 0;
#X connect 52 0 57 0;
#X connect 53 0 20 0;
#X connect 54 0 53 1;
#X connect 55 0 52 0;
#X connect 56 0 42 0;
#X connect 57 0 53 0;
#X connect 57 1 55 0;
#X connect 58 0 34 0;
#X connect 59 0 41 0;
#X connect 60 0 3 0;
