#N canvas 1393 434 450 300 10;
#X obj 247 337 freeverb~;
#X obj 290 80 loadbang;
#X msg 217 106 print;
#X obj 267 255 *~;
#X obj 282 233 line~;
#X obj 282 212 pack 0 100;
#X msg 251 151 wet 0.68 \, damping 0.2 \, dry 0 \, roomsize 0.98 \,
width 0;
#X obj 361 280 pvu~;
#X obj 449 229 vu 15 120 empty empty -1 -8 0 10 -66577 -1 1 0;
#X obj 165 164 inlet~;
#X obj 304 397 outlet~;
#X obj 225 401 outlet~;
#X obj 408 106 inlet;
#X obj 268 288 *~ 0.4;
#X connect 0 0 11 0;
#X connect 0 1 10 0;
#X connect 1 0 6 0;
#X connect 2 0 0 0;
#X connect 3 0 13 0;
#X connect 4 0 3 1;
#X connect 5 0 4 0;
#X connect 6 0 0 0;
#X connect 7 0 8 1;
#X connect 9 0 3 0;
#X connect 12 0 5 0;
#X connect 13 0 0 1;
#X connect 13 0 0 0;
#X connect 13 0 7 0;
